<?xml version="1.0" encoding="utf-8"?>
<!-- Generator: Adobe Illustrator 21.0.0, SVG Export Plug-In . SVG Version: 6.00 Build 0)  -->
<svg version="1.1" id="Layer_1" xmlns="http://www.w3.org/2000/svg" xmlns:xlink="http://www.w3.org/1999/xlink" x="0px" y="0px"
	 viewBox="0 0 200 200" style="enable-background:new 0 0 200 200;" xml:space="preserve">
<style type="text/css">
	.st0{fill:#FFFFFF;}
</style>
<g>
	<path class="st0" d="M159.9,152.3c-2.1,0-4.2,0-6.6,0c2.2-6.5,2.1-13.2,1.9-19.9c-0.2-6.6,1.1-13.2-1.3-19.9c2.2,0,4.4-0.2,6.6,0.1
		c0.9,0.1,1.8,1.2,2.4,2.1c6.3,9.1,12.6,18.3,18.9,27.5c0.4,0.6,0.9,1.1,1.4,1.8c1.1-2.5,0.6-26.6-0.6-31.4c1.9,0,3.8,0,5.8,0
		c-2.5,6-1.6,12.4-1.7,18.6c-0.1,6.8,0.1,13.5,0.1,20.3c0,0.3-0.1,0.5-0.1,0.8c-3.6,0.8-4,0.7-6-2.2c-6.8-9.7-13.6-19.3-20.4-29
		c-0.4-0.6-0.9-1.2-1.4-1.9C157.7,121.8,158.4,144.7,159.9,152.3z"/>
	<path class="st0" d="M136.7,152.2c-0.2,0.1-0.2,0.1-0.3,0.1c-5.8,0.4-5.8,0.4-7.9-5c-1.4-3.7-2.9-7.3-4.3-11
		c-0.4-1.2-1-1.7-2.4-1.7c-3.7,0.1-7.3,0-11,0.1c-0.7,0-1.7,0.5-2,1c-1.7,3.9-3.3,7.9-4.7,11.9c-0.5,1.4-0.4,3-0.5,4.6
		c-2.2,0-4.5,0-6.8,0c7.3-12.5,13.8-25.4,18-39.8c1.7,0,3.8-0.1,5.9,0.1c0.5,0,1.1,1,1.3,1.7c2.9,8.3,5.7,16.7,8.7,25
		C132.4,143.6,134.6,147.8,136.7,152.2z M122.5,132.2c-1.7-5.1-3.4-10.1-5-15c-0.3,0-0.7,0-1,0c-2,4.9-4,9.8-6.1,15
		C114.5,132.2,118.3,132.2,122.5,132.2z"/>
	<path class="st0" d="M40.3,112.5c2.2,0,4.4,0,6.7,0c-0.1,0.3-0.1,0.7-0.2,0.9c-6.6,11.8-11.3,24.4-16,37c-0.7,1.9-3.5,3.1-5.2,2.1
		c-0.5-0.3-0.7-1.1-0.9-1.7c-3.5-10.6-6.9-21.2-10.4-31.8c-0.7-2.1-1.8-4.2-2.7-6.5c1.8,0,3.4-0.2,4.9,0.1c0.8,0.2,1.8,1.1,2.1,1.9
		c3.2,9.5,6.3,19.1,9.4,28.7c0.3,1,0.7,2,1.5,3C33.4,134.9,39.1,124.6,40.3,112.5z"/>
	<path class="st0" d="M59.3,112.5c7.6-0.4,7.8-0.3,10.8,6.3c1.6,3.6,2.9,7.4,4.3,11.2c0.3,0.7,0.6,1.5,1.3,2.3
		c2.9-6.5,8.9-11.6,8.5-19.7c1.9,0,4.2,0,6.7,0c-0.4,0.7-0.8,1.4-1.1,2c-2.8,4.4-5.6,8.8-8.5,13.2c-2.8,4.2-4.3,8.8-4,13.9
		c0.1,3.6,0.3,7.1,0.5,10.8c-2.1,0-4.5,0-7.1,0C74.4,136.9,68.7,124.3,59.3,112.5z"/>
	<g>
		<path class="st0" d="M69.5,38.5l-1.4-0.7l-0.3,1.6c-0.1,0.3-1.5,7.1,1.6,11.1c1.3,1.7,3.1,2.6,5.4,2.8l0.7,0.1l0.4-0.6
			c0.1-0.1,2-3,1-6.6C76,43.1,73.6,40.5,69.5,38.5z M74.1,50.7c-1.2-0.2-2.1-0.8-2.8-1.7c-1.6-2.1-1.5-5.4-1.3-7.4
			c2.5,1.5,4,3.3,4.5,5.2C74.8,48.4,74.4,49.9,74.1,50.7z"/>
		<path class="st0" d="M134.1,37.7l-1.4,0.7c-4.1,2.1-6.5,4.7-7.3,7.7c-0.9,3.6,0.9,6.4,1,6.6l0.4,0.6l0.7-0.1
			c2.3-0.2,4.1-1.1,5.4-2.8c3-4,1.6-10.9,1.6-11.1L134.1,37.7z M130.9,49c-0.7,0.9-1.6,1.5-2.8,1.7c-0.3-0.8-0.8-2.2-0.3-3.9
			c0.5-1.9,2-3.7,4.5-5.2C132.4,43.6,132.4,46.9,130.9,49z"/>
		<path class="st0" d="M143.3,32.4l0.4-1.7l-1.8,0.2c-0.1,0-6.3,0.8-13.6,2.5c-4.2,1-7.8,2-11,3.2c-3.7-7.2-9-14.2-15.5-20.5
			l-0.9-0.8l-0.9,0.8c-6.5,6.3-11.8,13.3-15.5,20.5c-10.7-4-23.8-5.6-24.5-5.7l-1.8-0.2l0.4,1.7c0.2,1,0.1,6.6,0,10.4
			c0,1.8-0.1,3.5-0.1,4.7c0,8.2,1.9,13.3,8.8,23.6l0,0c5,7,12.4,11.5,21.4,13.2c5.9,1.1,10.7,0.7,11.9,0.5l0.1,0l0.1,0
			c0.6,0.1,2.1,0.2,4.2,0.2c6.9,0,20.3-1.8,29.2-14l0,0c6.9-10.3,8.8-15.3,8.8-23.6c0-1.1,0-2.9-0.1-4.7
			C143.2,39,143.1,33.4,143.3,32.4z M115.1,37.5c-3.3,1.4-5.9,2.9-7.8,4.5c-2.3,2-3.9,3.9-5,5.7V20C107.6,25.4,112,31.4,115.1,37.5z
			 M101.1,82.2C98.2,81.1,81,73.8,81,59.7c0-6.4,1.7-13.2,4.9-20c2.8,1.2,5.4,2.6,7.3,4.1c4.9,4.2,6,7.6,6.5,11.2
			c-4,0.7-7,4.1-7,8.2c0,4.6,3.8,8.3,8.4,8.3v-2.5c-3.3,0-5.9-2.6-5.9-5.8c0-3.2,2.6-5.8,5.9-5.8h0c3.3,0,5.9,2.6,5.9,5.8
			c0,3.2-2.7,5.8-5.9,5.8v2.5c4.6,0,8.4-3.7,8.4-8.3c0-4.1-3-7.5-7-8.2c0.5-3.6,1.6-7,6.4-11.2c1.9-1.6,4.5-3,7.3-4.1
			c3.2,6.8,4.9,13.6,4.9,20C121.2,73.7,104,81.1,101.1,82.2z M99.8,20v27.7c-1.1-1.8-2.7-3.7-5-5.7c-2.1-1.7-4.8-3.2-7.8-4.5
			C90.2,31.4,94.5,25.4,99.8,20z M69.6,69.6c-6.6-9.9-8.3-14.4-8.3-22.2c0-1.1,0-2.8,0.1-4.6c0.1-4,0.1-7.3,0.1-9.3
			c3.8,0.5,13.8,2.2,22.2,5.2c-3.3,7.1-5.1,14.2-5.1,20.9c0,7.1,3.9,13.7,11.2,19.1c2.1,1.6,4.3,2.8,6.1,3.7
			C89.1,82.3,77.3,80.3,69.6,69.6z M132.5,69.6c-7.7,10.6-19.4,12.7-26.1,12.9c1.8-0.9,3.9-2.2,6.1-3.7c7.3-5.4,11.2-12,11.2-19.1
			c0-6.7-1.8-13.8-5.1-20.9c8.4-3.1,18.4-4.7,22.2-5.2c-0.1,2,0,5.2,0.1,9.3c0,1.8,0.1,3.5,0.1,4.6
			C140.9,55.2,139.2,59.7,132.5,69.6z"/>
	</g>
	<g>
		<path class="st0" d="M43.4,184.7v-6.1h2c0.7,0,1.2,0.1,1.5,0.4c0.3,0.3,0.5,0.7,0.5,1.2c0,0.3-0.1,0.5-0.2,0.8
			c-0.2,0.2-0.4,0.4-0.7,0.5c0.3,0.1,0.6,0.3,0.8,0.5c0.2,0.3,0.3,0.6,0.3,0.9c0,0.5-0.2,1-0.5,1.3c-0.4,0.3-0.9,0.5-1.5,0.5H43.4z
			 M44.2,181.2h1.2c0.4,0,0.6-0.1,0.8-0.3s0.3-0.4,0.3-0.7c0-0.3-0.1-0.6-0.3-0.7c-0.2-0.2-0.5-0.2-0.9-0.2h-1.2V181.2z M44.2,181.8
			v2.2h1.3c0.4,0,0.7-0.1,0.9-0.3c0.2-0.2,0.3-0.5,0.3-0.8c0-0.7-0.4-1.1-1.2-1.1H44.2z"/>
		<path class="st0" d="M53.5,181.9h-2.6v2.2h3.1v0.7H50v-6.1h3.8v0.7h-3v2h2.6V181.9z"/>
		<path class="st0" d="M59.5,183.1H57l-0.6,1.6h-0.8l2.3-6.1h0.7l2.3,6.1h-0.8L59.5,183.1z M57.2,182.4h2.1l-1-2.8L57.2,182.4z"/>
		<path class="st0" d="M67.2,178.6v4.1c0,0.6-0.2,1-0.5,1.4s-0.8,0.6-1.5,0.6l-0.2,0c-0.7,0-1.2-0.2-1.6-0.5
			c-0.4-0.4-0.6-0.9-0.6-1.5v-4.1h0.8v4.1c0,0.4,0.1,0.8,0.4,1c0.2,0.2,0.6,0.4,1,0.4c0.5,0,0.8-0.1,1-0.4s0.4-0.6,0.4-1v-4.1H67.2z
			"/>
		<path class="st0" d="M74,179.2h-2v5.4h-0.8v-5.4h-1.9v-0.7H74V179.2z"/>
		<path class="st0" d="M78.1,181.6l1.6-3h0.9l-2.1,3.8v2.3h-0.8v-2.3l-2.1-3.8h0.9L78.1,181.6z"/>
		<path class="st0" d="M90.5,182.7c-0.1,0.6-0.3,1.1-0.7,1.5c-0.4,0.3-0.9,0.5-1.6,0.5c-0.7,0-1.3-0.3-1.7-0.8
			c-0.4-0.5-0.6-1.2-0.6-2.1v-0.6c0-0.6,0.1-1.1,0.3-1.5c0.2-0.4,0.5-0.8,0.9-1s0.8-0.3,1.3-0.3c0.6,0,1.2,0.2,1.6,0.5
			c0.4,0.4,0.6,0.9,0.7,1.5h-0.8c-0.1-0.5-0.2-0.8-0.5-1.1c-0.2-0.2-0.6-0.3-1-0.3c-0.5,0-0.9,0.2-1.2,0.6c-0.3,0.4-0.4,0.9-0.4,1.6
			v0.6c0,0.7,0.1,1.2,0.4,1.6s0.7,0.6,1.2,0.6c0.4,0,0.8-0.1,1-0.3c0.2-0.2,0.4-0.6,0.5-1.1H90.5z"/>
		<path class="st0" d="M93.7,184h2.9v0.7h-3.7v-6.1h0.8V184z"/>
		<path class="st0" d="M99.6,184.7h-0.8v-6.1h0.8V184.7z"/>
		<path class="st0" d="M107,184.7h-0.8l-3.1-4.7v4.7h-0.8v-6.1h0.8l3.1,4.7v-4.7h0.8V184.7z"/>
		<path class="st0" d="M110.6,184.7h-0.8v-6.1h0.8V184.7z"/>
		<path class="st0" d="M117.8,182.7c-0.1,0.6-0.3,1.1-0.7,1.5c-0.4,0.3-0.9,0.5-1.6,0.5c-0.7,0-1.3-0.3-1.7-0.8s-0.6-1.2-0.6-2.1
			v-0.6c0-0.6,0.1-1.1,0.3-1.5c0.2-0.4,0.5-0.8,0.9-1s0.8-0.3,1.3-0.3c0.6,0,1.2,0.2,1.6,0.5c0.4,0.4,0.6,0.9,0.7,1.5H117
			c-0.1-0.5-0.2-0.8-0.5-1.1c-0.2-0.2-0.6-0.3-1-0.3c-0.5,0-0.9,0.2-1.2,0.6c-0.3,0.4-0.4,0.9-0.4,1.6v0.6c0,0.7,0.1,1.2,0.4,1.6
			s0.7,0.6,1.2,0.6c0.4,0,0.8-0.1,1-0.3c0.2-0.2,0.4-0.6,0.5-1.1H117.8z"/>
		<path class="st0" d="M123.3,183c0-0.3,0.1-0.6,0.2-0.8c0.2-0.2,0.5-0.5,0.9-0.9c-0.3-0.3-0.5-0.6-0.5-0.8s-0.1-0.4-0.1-0.6
			c0-0.5,0.1-0.8,0.4-1.1c0.3-0.3,0.6-0.4,1.1-0.4c0.4,0,0.8,0.1,1,0.4s0.4,0.5,0.4,0.9c0,0.2-0.1,0.5-0.2,0.7
			c-0.1,0.2-0.3,0.4-0.6,0.7l-0.4,0.3l1.4,1.6c0.2-0.4,0.3-0.8,0.3-1.2h0.7c0,0.7-0.2,1.3-0.5,1.8l0.9,1h-0.9l-0.4-0.5
			c-0.2,0.2-0.4,0.3-0.7,0.4c-0.3,0.1-0.6,0.1-0.8,0.1c-0.6,0-1.1-0.2-1.4-0.5C123.5,184,123.3,183.5,123.3,183z M125.3,184.1
			c0.4,0,0.8-0.2,1.1-0.5l-1.5-1.8l-0.1,0.1c-0.5,0.3-0.7,0.7-0.7,1.1c0,0.3,0.1,0.6,0.3,0.8S124.9,184.1,125.3,184.1z M124.6,180
			c0,0.3,0.2,0.6,0.5,1l0.5-0.3c0.2-0.1,0.3-0.3,0.4-0.4c0.1-0.1,0.1-0.3,0.1-0.4c0-0.2-0.1-0.3-0.2-0.5c-0.1-0.1-0.3-0.2-0.5-0.2
			c-0.2,0-0.4,0.1-0.5,0.2C124.6,179.5,124.6,179.7,124.6,180z"/>
		<path class="st0" d="M135.4,182c-0.7-0.2-1.2-0.4-1.5-0.7c-0.3-0.3-0.5-0.6-0.5-1.1c0-0.5,0.2-0.9,0.6-1.2
			c0.4-0.3,0.9-0.5,1.5-0.5c0.4,0,0.8,0.1,1.1,0.2c0.3,0.2,0.6,0.4,0.8,0.7c0.2,0.3,0.3,0.6,0.3,0.9h-0.8c0-0.4-0.1-0.7-0.4-0.9
			c-0.2-0.2-0.6-0.3-1-0.3c-0.4,0-0.7,0.1-0.9,0.3c-0.2,0.2-0.3,0.4-0.3,0.7c0,0.2,0.1,0.5,0.3,0.6c0.2,0.2,0.6,0.3,1.1,0.5
			c0.5,0.1,0.9,0.3,1.2,0.5s0.5,0.4,0.6,0.6c0.1,0.2,0.2,0.5,0.2,0.8c0,0.5-0.2,0.9-0.6,1.2c-0.4,0.3-0.9,0.4-1.5,0.4
			c-0.4,0-0.8-0.1-1.2-0.2c-0.4-0.2-0.6-0.4-0.8-0.7s-0.3-0.6-0.3-0.9h0.8c0,0.4,0.1,0.7,0.4,0.9s0.6,0.3,1.1,0.3
			c0.4,0,0.7-0.1,1-0.3c0.2-0.2,0.3-0.4,0.3-0.7s-0.1-0.5-0.3-0.7C136.3,182.3,135.9,182.1,135.4,182z"/>
		<path class="st0" d="M140.7,182.3v2.4h-0.8v-6.1h2.2c0.7,0,1.2,0.2,1.6,0.5c0.4,0.3,0.6,0.8,0.6,1.3c0,0.6-0.2,1-0.6,1.4
			c-0.4,0.3-0.9,0.5-1.6,0.5H140.7z M140.7,181.6h1.4c0.4,0,0.8-0.1,1-0.3c0.2-0.2,0.3-0.5,0.3-0.9c0-0.4-0.1-0.7-0.3-0.9
			c-0.2-0.2-0.5-0.3-0.9-0.3h-1.5V181.6z"/>
		<path class="st0" d="M149.4,183.1h-2.5l-0.6,1.6h-0.8l2.3-6.1h0.7l2.3,6.1H150L149.4,183.1z M147.1,182.4h2.1l-1-2.8L147.1,182.4z
			"/>
	</g>
</g>
</svg>
