<?xml version="1.0" encoding="utf-8"?>
<!-- Generator: Adobe Illustrator 25.4.1, SVG Export Plug-In . SVG Version: 6.00 Build 0)  -->
<svg version="1.1" id="Layer_1" xmlns="http://www.w3.org/2000/svg" xmlns:xlink="http://www.w3.org/1999/xlink" x="0px" y="0px"
	 viewBox="0 0 128 64" style="enable-background:new 0 0 128 64;" xml:space="preserve">
<style type="text/css">
	.st0{fill:#FFFFFF;}
</style>
<path class="st0" d="M65.5,13.5c-0.6,1.9-1.4,3.5-3.3,4.4c-0.7,0.3-2.5,0.7-3.3,0.5c-1,0-2.3-0.4-3-0.7c-1.5-0.6-3.5-1.6-4.9-2.3
	c-1.5-0.7-2.4-1.2-3.8-1.9c-0.6-0.3-1.2-0.5-1.8-0.6c-1.3-0.3-2.3,0.1-3.2,1c-1,1-1.5,1.9-1.9,3.2c-0.8,2.5-0.9,5.1-1,7.8
	c-0.1,2.5,0,4.7,0.2,7.5c0.4,2.9,0.7,5.8,1.1,9v0.1c-0.2-0.4-0.5-0.8-0.7-1.2c-1.6-2.8-2.5-5.8-3.1-8.9c-0.4-2.4-0.7-4.8-0.6-7.2
	c0.1-4,0.7-8,2.2-11.7c0.4-0.9,0.9-1.8,1.5-2.5c1.6-1.9,3.7-2.3,5.9-1.2c1.8,0.8,3.4,1.7,5,2.8c1.2,0.8,2.9,1.6,4.1,2.5
	c1.1,0.6,2.7,1.3,4.3,1.5c1.6,0.1,3.1,0.1,4.5-0.8C64.4,14.4,64.9,14,65.5,13.5z"/>
<path class="st0" d="M12,45.9c-0.1,0.6-0.2,1.2-0.3,1.8c-0.4,2-0.6,4.1-0.6,6.2c0,0.4,0.1,0.9,0.1,1.3c0.1,0.7,0.5,1.1,1.2,1.3
	c0.2,0.1,0.5,0.2,0.7,0.2c0.3,0,0.3,0.2,0.2,0.4c-0.1,0-0.2,0-0.3,0c-1.6,0-3.3,0-4.9,0c-0.1,0-0.3,0.1-0.3-0.2
	c0-0.1,0.2-0.2,0.3-0.2C9,56.5,9.6,56,9.8,55.2c0.2-1,0.4-2,0.5-3c0.3-2.2,0.7-4.4,1-6.6c0-0.2-0.1-0.4-0.2-0.5
	c-0.4-0.5-0.9-0.7-1.5-0.9c-0.3-0.1-0.4-0.2-0.3-0.5c0.4,0,0.8,0,1.2,0c1.6,0,3.3,0,4.9,0c0.1,0,0.3-0.1,0.3,0.2
	c0,0.2-0.1,0.3-0.3,0.3c-0.9,0.2-1.1,0.6-0.8,1.4c0.4,1.2,1,2.3,1.4,3.4c0.5,1.1,0.9,2.2,1.4,3.2c0,0.1,0.1,0.2,0.2,0.4
	c0.1-0.2,0.2-0.3,0.2-0.4c0.9-2.3,1.9-4.5,2.8-6.8c0.3-0.7,0.2-0.9-0.5-1.1c-0.2-0.1-0.3-0.1-0.5-0.1c-0.3,0-0.4-0.2-0.3-0.5
	c0.4,0,0.8,0,1.2,0c1.7,0,3.5,0,5.2,0c0.1,0,0.3-0.1,0.4,0.2c0,0.2-0.1,0.3-0.3,0.3h-0.1c-1.2,0.2-1.8,0.9-1.7,2.2
	c0.2,1.6,0.5,3.2,0.7,4.9c0.2,1.2,0.5,2.5,0.7,3.7c0.2,1,0.7,1.7,1.8,1.9c0.3,0,0.3,0.1,0.2,0.4c-2.4,0-4.8,0-7.3,0
	c-0.1-0.2,0-0.3,0.2-0.4c0.5-0.1,0.9-0.2,1.3-0.3c0.7-0.3,1.1-0.9,1-1.7c-0.5-2.9-0.9-5.7-1.4-8.6c0-0.1,0-0.1-0.1-0.3
	c0,0.1-0.1,0.1-0.1,0.1c-0.7,1.7-1.4,3.5-2.1,5.2c-0.8,1.8-1.5,3.7-1.9,5.6c0,0.1-0.2,0.2-0.3,0.2c-0.2,0-0.3,0-0.3-0.2
	c-0.9-3.2-2.2-6.2-3.6-9.2c-0.2-0.5-0.5-1-0.7-1.5C12.2,46,12.1,46,12,45.9z"/>
<path class="st0" d="M81.6,27.4c-0.2-1.1-0.5-3.2-0.7-4.3c-0.6-2.6-1-5.2-2-7.7c-0.6-1.6-1.5-3.1-2.8-4.3c-1.5-1.5-3.4-1.7-5.5-1.5
	c-1.9,0.2-3.3,0.4-5,1.1c-2,0.8-4,1.7-5.9,2.6c-0.4,0.2-0.8,0.4-1.3,0.5c0,0,0,0-0.1-0.1c0.5-0.5,1-1,1.5-1.6
	c1.6-1.6,3.4-2.9,5.4-3.9c2.2-1.1,4.6-1.7,7.1-1.6c2.1,0.1,4,0.9,5.5,2.4c1.9,1.8,2.9,4.1,3.6,6.6c0.7,2.7,0.9,5.4,0.6,8.2
	C82.1,24.8,81.6,27.4,81.6,27.4z"/>
<path class="st0" d="M62.5,56.9c0.1,0,0.2-0.1,0.3-0.1c0.3-0.1,0.5-0.1,0.8-0.2c0.7-0.3,1-0.6,1-1.4c0-2.7,0-5.4,0-8.1
	c0-0.5,0-1,0-1.6c0-1.1-0.4-1.5-1.5-1.7c-0.1,0-0.3,0-0.4-0.1c-0.1,0-0.1-0.1-0.1-0.2c0.1,0,0.2,0,0.3,0c1.9,0.2,3.7,0,5.6-0.2
	c2-0.2,3.9,0,5.6,0.9c2.7,1.5,4,3.8,3.9,6.9c-0.1,2.7-2,4.8-4.7,5.5c-1.5,0.4-3,0.3-4.5,0.3c-2,0-3.9,0-5.9,0c-0.1,0-0.2,0-0.3,0
	C62.5,57,62.5,57,62.5,56.9z M66.4,50.3L66.4,50.3c0,1.4,0.1,2.8,0,4.2c-0.1,0.9,0.3,1.3,1.1,1.6c0.2,0.1,0.3,0.1,0.5,0.2
	c1.5,0.4,3,0.3,4.5-0.2c1.4-0.5,2.2-1.4,2.8-2.7c0.4-0.9,0.5-1.8,0.5-2.8c0.2-5.1-4.6-8-8.9-6.3c-0.2,0.1-0.3,0.2-0.3,0.4
	C66.5,46.6,66.4,48.5,66.4,50.3z"/>
<path class="st0" d="M50.2,57c-0.1,0-0.2,0-0.3,0c-1.5,0-3,0-4.6,0c-0.1,0-0.2,0-0.3-0.1c0,0-0.1-0.2,0-0.2c0.1-0.1,0.2-0.1,0.3-0.1
	c0.5,0,0.9-0.2,1.1-0.6c0.1-0.2,0.1-0.4,0.1-0.6c0-3.7,0-7.5,0-11.2c0-0.7-0.3-1-1-1c-0.1,0-0.2,0-0.4,0c0-0.2-0.1-0.4,0.1-0.4
	c1.2-0.1,2.4-0.2,3.6-0.4c0,2.5,0,5.1,0,7.8c0.3-0.2,0.5-0.3,0.7-0.5c0.8-0.6,1.8-0.9,2.8-0.8c1.4,0.1,2.3,1.1,2.3,2.5
	c0,1.3,0,2.5,0,3.8c0,0.9,0.3,1.2,1.1,1.4c0.1,0,0.1,0.1,0.2,0.2c-0.1,0.1-0.2,0.1-0.3,0.1c-1.3,0-2.5,0-3.8,0c-0.3,0-0.5,0-0.8,0
	c-0.1,0-0.1-0.1-0.2-0.2c0.1-0.1,0.1-0.2,0.2-0.2c0.9-0.2,1.1-0.5,1.1-1.4c0-1.2,0-2.3,0-3.5c0-0.8-0.4-1.3-1.2-1.4
	c-0.8-0.2-1.5,0.1-2.1,0.7c-0.1,0.1-0.1,0.2-0.1,0.3c0,1.4,0,2.8,0,4.2c0,0.7,0.3,1.1,1.1,1.2C50.1,56.7,50.3,56.8,50.2,57z"/>
<path class="st0" d="M38.7,56.7c0,0.1,0,0.2,0,0.4c-0.3,0-0.7,0-1,0c-1.3,0-2.5,0-3.8,0c-0.2,0-0.4,0-0.3-0.3c0.1,0,0.1,0,0.2,0
	c0.9-0.1,1.2-0.5,1.2-1.3c0-1.5,0-3,0-4.4c0-0.8-0.2-1.1-1-1.2c-0.1,0-0.3,0-0.3-0.2c0-0.3,0.2-0.2,0.4-0.2c0.4,0,0.7,0,1.1,0
	c0.8-0.1,1.5-0.1,2.3-0.2c0,0.4,0,0.7,0,1.2c0.2-0.1,0.3-0.2,0.4-0.2c0.9-0.7,1.9-1.1,3.1-1c1.5,0.2,2.4,1.1,2.4,2.6
	c0,1.3,0,2.5,0,3.8c0,0.8,0.3,1.2,1.1,1.3c0.3,0,0.3,0.2,0.2,0.4c-1.7,0-3.3,0-5,0c-0.1-0.2-0.1-0.3,0.2-0.4
	c0.7-0.1,1.1-0.5,1.1-1.2c0-1.2,0-2.5,0-3.7c0-0.8-0.5-1.3-1.3-1.4c-0.8-0.1-1.4,0.2-2,0.7c-0.1,0.1-0.2,0.3-0.2,0.5
	c0,1.3,0,2.6,0,4c0,0.8,0.4,1.2,1.2,1.3C38.6,56.7,38.6,56.7,38.7,56.7z"/>
<path class="st0" d="M91.3,49.2c0,0.4,0,0.7,0,1.1c0.4-0.2,0.7-0.4,1-0.6c0.7-0.4,1.4-0.7,2.3-0.5c1.5,0.3,2.3,1.2,2.3,2.7
	c0,1.2,0,2.4,0,3.5c0,0.9,0.2,1.1,1,1.3c0.1,0,0.4,0,0.4,0.3c-1.5,0-2.9,0-4.4,0c0,0,0,0-0.1-0.1c0.1-0.1,0.1-0.1,0.2-0.2
	c1.1-0.3,1.2-0.4,1.2-1.6c0-1.1,0-2.2,0-3.3c0-0.2,0-0.4-0.1-0.6c-0.2-0.8-0.8-1.3-1.7-1.3c-0.7,0-1.3,0.2-1.8,0.7
	c-0.2,0.2-0.3,0.4-0.3,0.6c0,1.4,0,2.8,0,4.2c0,0.6,0.2,0.9,0.8,1.1c0.2,0.1,0.4,0.1,0.6,0.1c0.1,0,0.1,0.1,0.2,0.2
	c-1.5,0-3,0-4.5,0c0,0,0,0-0.1-0.1c0.1-0.1,0.1-0.1,0.2-0.2c1.2-0.3,1.2-0.4,1.2-1.6c0-1.4,0-2.8,0-4.1c0-0.9-0.2-1-1-1.1
	c-0.1,0-0.3-0.1-0.4-0.1c0.1-0.1,0.3-0.1,0.4-0.2C89.6,49.5,90.4,49.4,91.3,49.2z"/>
<path class="st0" d="M115.1,55.8c-0.5,0.4-0.9,0.9-1.4,1.2c-0.7,0.5-1.1,0.4-1.7-0.1c0,0-0.1,0-0.1-0.1c-0.2-0.2-0.4-0.6-0.7-0.6
	c-0.3,0-0.5,0.3-0.8,0.4c-0.8,0.4-1.6,0.7-2.5,0.7c-1.6-0.1-2.5-1.7-1.8-3.1c0.4-0.7,1.1-1,1.8-1.2c0.9-0.2,1.9-0.2,2.9-0.3
	c0.1,0,0.2,0,0.3,0c0-0.7,0.1-1.4,0-2c-0.1-0.8-1-1.3-1.8-1.1c-0.4,0.1-0.6,0.4-0.7,0.7s-0.2,0.6-0.3,1c-0.5-0.1-1-0.2-1.6-0.3
	c0-0.8,0.7-1.5,1.3-1.7c0.7-0.2,1.5-0.2,2.2-0.2c0.3,0,0.7,0.1,1,0.2c1,0.3,1.5,1.1,1.5,2.2c0,1.2,0,2.5,0,3.7
	c0,0.4,0.1,0.7,0.4,0.9c0.4,0.2,0.7,0.1,1.1-0.1c0.2-0.1,0.3-0.3,0.5-0.4c0.1,0,0.2,0,0.3,0C115.1,55.7,115.1,55.7,115.1,55.8z
	 M111.2,54.6c0-0.3,0-0.5,0-0.8c0-0.2,0-0.3-0.3-0.4c-0.3,0-0.7-0.1-1-0.1c-0.7,0-1.4,0.1-1.9,0.6c-0.4,0.4-0.5,0.9-0.4,1.5
	c0.1,0.5,0.6,0.7,1,0.8c0.6,0.1,1.2,0,1.8-0.3c0.5-0.2,0.8-0.5,0.7-1.2C111.2,54.8,111.2,54.7,111.2,54.6z"/>
<path class="st0" d="M86.7,55.2c0.1,0.1,0.2,0.2,0.3,0.3c-1.7,2.2-4.8,2.5-6.5,0.7c-1.6-1.7-1.5-4.8,0.3-6.3
	c2.2-1.9,5.5-0.6,6.1,2.3c0,0.1,0,0.3,0.1,0.5c-0.1,0-0.3,0-0.4,0c-1.7,0-3.5,0-5.2,0c-0.3,0-0.4,0.1-0.4,0.4
	c0.1,0.7,0.2,1.4,0.6,2.1c0.7,1,1.8,1.4,3.1,1.1c0.3-0.1,0.7-0.2,1-0.4C86.1,55.7,86.4,55.4,86.7,55.2z M85,52.1
	c-0.1-0.8-0.1-1.7-0.9-2.1c-0.7-0.3-1.4-0.4-2,0.1c-0.7,0.5-1,1.2-1,2C82.4,52.1,83.7,52.1,85,52.1z"/>
<path class="st0" d="M118.3,42.3c0,0.2,0,0.3,0,0.4c0,3.9,0,7.9,0,11.8c0,0.3,0,0.6,0,0.9c0.1,0.9,0.4,1.2,1.3,1.4
	c0.1,0,0.2,0.1,0.3,0.1V57c-1.6,0-3.2,0-4.8,0c0.1-0.1,0.1-0.2,0.2-0.2s0.2,0,0.3,0c0.7-0.1,1-0.4,1.1-1.1c0-0.3,0-0.6,0-0.9
	c0-3.4,0-6.9,0-10.3c0-0.1,0-0.2,0-0.3c-0.1-0.9-0.3-1.1-1.2-1.2c-0.1,0-0.2-0.1-0.3-0.1c0.1,0,0.2-0.1,0.2-0.1
	C116.4,42.6,117.3,42.5,118.3,42.3z"/>
<path class="st0" d="M27.7,49.7c0-0.1,0-0.2,0-0.3c1.3-0.1,2.6-0.3,3.9-0.4c0,0.2,0,0.4,0,0.6c0,1.9,0,3.8,0,5.8
	c0,0.9,0.3,1.2,1.2,1.3h0.1c0.1,0.1,0.2,0.1,0.2,0.2c-0.1,0.1-0.2,0.2-0.3,0.2c-0.3,0-0.6,0-1,0c-1.1,0-2.3,0-3.4,0
	c-0.2,0-0.3,0-0.5,0c-0.1,0-0.2-0.1-0.2-0.2c0.1-0.1,0.1-0.2,0.2-0.2s0.2,0,0.3,0c0.6-0.1,0.9-0.5,0.9-1.1c0-1.6,0-3.1,0-4.7
	c0-0.6-0.3-1-0.9-1.1C28,49.7,27.9,49.7,27.7,49.7z"/>
<path class="st0" d="M105.1,55.3c0,0.2,0.1,0.3,0,0.3c-0.6,0.6-1.2,1.3-2.1,1.5c-1.6,0.5-2.4-0.1-2.4-1.7c0-1.7,0-3.3,0-5
	c0-0.4,0-0.4-0.4-0.4s-0.8,0-1.3,0c0.1-0.2,0.2-0.3,0.2-0.3c1.2-0.1,1.8-0.9,2.2-1.9c0.2-0.4,0.3-0.8,0.5-1.2c0-0.1,0.2-0.2,0.3-0.2
	c0,0,0.1,0,0.1,0.1c0,1,0,1.9,0,3c1,0,1.9,0,2.8,0c0,0.2,0,0.4,0,0.6c-0.9,0-1.8,0-2.8,0c0,0.1,0,0.1,0,0.2c0,1.7,0,3.3,0,5
	c0,0.9,0.5,1.3,1.4,1c0.3-0.1,0.6-0.3,0.9-0.5C104.7,55.7,104.9,55.5,105.1,55.3z"/>
<path class="st0" d="M28.6,44.8c0-0.9,0.7-1.6,1.5-1.6c0.9,0,1.6,0.7,1.6,1.6c0,0.9-0.7,1.5-1.6,1.5C29.3,46.3,28.6,45.7,28.6,44.8z
	"/>
</svg>
