<?xml version="1.0" encoding="utf-8"?>
<!-- Generator: Adobe Illustrator 26.4.1, SVG Export Plug-In . SVG Version: 6.00 Build 0)  -->
<svg version="1.1" id="Layer_1" xmlns="http://www.w3.org/2000/svg" xmlns:xlink="http://www.w3.org/1999/xlink" x="0px" y="0px"
	 viewBox="0 0 112.02 15" style="enable-background:new 0 0 112.02 15;" xml:space="preserve">
<style type="text/css">
	.st0{fill:#373737;}
	.st1{fill:#9B1D20;}
</style>
<path class="st1" d="M4.12,3.52c-0.1,0.63-0.18,1.2-0.28,1.76c-0.37,2.04-0.6,4.09-0.58,6.17c0,0.44,0.05,0.89,0.13,1.32
	c0.12,0.67,0.54,1.11,1.18,1.34c0.22,0.08,0.46,0.15,0.69,0.19c0.25,0.04,0.3,0.16,0.22,0.4c-0.09,0-0.19,0.01-0.29,0.01
	c-1.63,0-3.25,0-4.88,0c-0.13,0-0.35,0.07-0.31-0.17c0.01-0.09,0.17-0.21,0.28-0.23c0.88-0.16,1.46-0.66,1.65-1.52
	c0.23-1,0.39-2.01,0.54-3.02c0.33-2.21,0.65-4.43,0.96-6.65c0.02-0.17-0.06-0.41-0.17-0.55c-0.4-0.48-0.95-0.74-1.54-0.88
	C1.4,1.63,1.35,1.47,1.43,1.21c0.4,0,0.79,0,1.19,0C4.26,1.21,5.89,1.2,7.53,1.19c0.14,0,0.31-0.08,0.33,0.17
	c0.02,0.21-0.09,0.27-0.27,0.31C6.73,1.88,6.46,2.3,6.78,3.11c0.45,1.15,0.96,2.28,1.44,3.42c0.45,1.08,0.9,2.16,1.36,3.24
	c0.04,0.1,0.09,0.2,0.16,0.37c0.1-0.16,0.17-0.26,0.21-0.36c0.94-2.26,1.88-4.51,2.8-6.77c0.28-0.69,0.17-0.89-0.54-1.15
	c-0.17-0.06-0.35-0.13-0.52-0.15c-0.31-0.04-0.42-0.19-0.32-0.48c0.41,0,0.81,0,1.22,0c1.74-0.01,3.48-0.03,5.22-0.04
	c0.15,0,0.33-0.09,0.36,0.17c0.03,0.25-0.12,0.29-0.3,0.31c-0.03,0-0.07,0.01-0.1,0.02c-1.25,0.21-1.82,0.91-1.65,2.18
	c0.21,1.62,0.47,3.24,0.73,4.85c0.2,1.24,0.45,2.48,0.66,3.72c0.17,1.05,0.69,1.73,1.8,1.88c0.27,0.04,0.26,0.06,0.23,0.38
	c-2.41,0-4.83,0-7.25,0c-0.09-0.23,0-0.32,0.23-0.37c0.45-0.1,0.92-0.18,1.35-0.34c0.7-0.26,1.09-0.95,0.96-1.7
	c-0.46-2.87-0.94-5.74-1.41-8.61c-0.01-0.08-0.05-0.15-0.08-0.25c-0.04,0.06-0.08,0.08-0.09,0.12c-0.69,1.74-1.35,3.5-2.06,5.23
	c-0.75,1.84-1.52,3.68-1.94,5.63c-0.02,0.09-0.19,0.18-0.31,0.21c-0.15,0.05-0.26-0.01-0.32-0.2c-0.9-3.17-2.21-6.18-3.59-9.16
	C4.78,4.73,4.53,4.22,4.28,3.71C4.25,3.66,4.2,3.62,4.12,3.52z"/>
<path class="st0" d="M54.57,14.6c0.1-0.04,0.2-0.1,0.31-0.13c0.26-0.07,0.54-0.09,0.79-0.19c0.74-0.26,0.97-0.62,0.97-1.41
	c0-2.71,0-5.41,0-8.12c0-0.52,0-1.05,0-1.57c-0.02-1.08-0.4-1.51-1.47-1.69c-0.15-0.02-0.29-0.03-0.44-0.07
	c-0.06-0.01-0.11-0.08-0.13-0.2c0.1,0,0.21-0.02,0.31-0.01c1.88,0.16,3.75-0.02,5.62-0.18c1.95-0.16,3.88-0.03,5.64,0.93
	c2.74,1.49,4,3.82,3.85,6.93c-0.13,2.73-1.96,4.81-4.72,5.5c-1.49,0.37-3,0.32-4.51,0.32c-1.95,0-3.91,0.01-5.86,0.01
	c-0.11,0-0.21,0-0.32,0C54.6,14.68,54.59,14.64,54.57,14.6z M58.46,8c0.01,0,0.03,0,0.04,0c0,1.4,0.07,2.8-0.03,4.19
	c-0.07,0.9,0.34,1.31,1.06,1.6c0.17,0.07,0.34,0.14,0.51,0.18c1.52,0.39,3.02,0.31,4.5-0.2c1.36-0.46,2.23-1.43,2.75-2.75
	c0.36-0.9,0.48-1.84,0.52-2.8c0.21-5.07-4.62-7.98-8.93-6.31c-0.23,0.09-0.3,0.21-0.3,0.45C58.56,4.25,58.51,6.12,58.46,8z"/>
<path class="st1" d="M42.25,14.7c-0.09,0-0.19,0.01-0.29,0.01c-1.52,0-3.04,0-4.57,0c-0.11,0-0.23-0.01-0.32-0.05
	c-0.04-0.02-0.05-0.18-0.02-0.22c0.06-0.06,0.16-0.1,0.25-0.11c0.46-0.05,0.89-0.16,1.08-0.63c0.07-0.17,0.1-0.37,0.1-0.56
	c0.01-3.74,0.01-7.48,0-11.22c0-0.65-0.28-0.95-0.97-1.04c-0.11-0.01-0.22-0.01-0.35-0.02c-0.04-0.17-0.12-0.36,0.15-0.39
	c1.18-0.12,2.37-0.23,3.6-0.35c0,2.55,0,5.14,0,7.83c0.28-0.2,0.47-0.34,0.67-0.49c0.83-0.6,1.76-0.88,2.79-0.78
	c1.44,0.14,2.31,1.09,2.32,2.53c0.01,1.26,0,2.52,0,3.79c0,0.87,0.27,1.18,1.11,1.36c0.08,0.02,0.15,0.15,0.22,0.22
	c-0.09,0.05-0.19,0.15-0.28,0.15c-1.25,0-2.5-0.02-3.75-0.03c-0.27,0-0.54,0.04-0.82,0.03c-0.07,0-0.14-0.1-0.21-0.15
	c0.06-0.08,0.11-0.2,0.18-0.22c0.93-0.23,1.13-0.48,1.13-1.44c0-1.17,0-2.34,0.01-3.51c0-0.77-0.4-1.26-1.16-1.41
	c-0.81-0.16-1.5,0.12-2.09,0.66c-0.08,0.07-0.12,0.22-0.13,0.33c-0.01,1.4-0.01,2.8,0,4.2c0,0.68,0.35,1.05,1.06,1.15
	C42.22,14.35,42.34,14.42,42.25,14.7z"/>
<path class="st1" d="M30.82,14.36c-0.01,0.12-0.01,0.22-0.02,0.36c-0.35-0.02-0.67-0.05-1-0.05c-1.27,0.01-2.55,0.02-3.82,0.04
	c-0.25,0-0.42-0.02-0.31-0.35c0.06-0.01,0.12-0.03,0.19-0.04c0.85-0.09,1.21-0.47,1.22-1.33c0.01-1.48,0-2.96,0-4.44
	c0-0.81-0.24-1.07-1.04-1.19c-0.14-0.02-0.35,0.02-0.32-0.24c0.02-0.25,0.22-0.18,0.36-0.19c0.36-0.02,0.73-0.02,1.09-0.05
	c0.76-0.06,1.51-0.13,2.31-0.2c0,0.38,0,0.75,0,1.21c0.17-0.11,0.28-0.17,0.38-0.25c0.9-0.71,1.89-1.12,3.06-1
	c1.5,0.15,2.36,1.1,2.36,2.61c0.01,1.26,0,2.52,0,3.79c0,0.79,0.33,1.18,1.12,1.27c0.26,0.03,0.26,0.16,0.21,0.37
	c-1.66,0-3.32,0-5.01,0c-0.08-0.19-0.08-0.33,0.21-0.37c0.74-0.1,1.06-0.5,1.06-1.25c0-1.23,0-2.46,0-3.68
	c0-0.79-0.48-1.32-1.27-1.43c-0.77-0.11-1.41,0.16-1.96,0.67c-0.1,0.1-0.15,0.3-0.16,0.45c-0.01,1.32-0.01,2.64-0.01,3.96
	c0,0.82,0.35,1.21,1.17,1.3C30.68,14.34,30.73,14.35,30.82,14.36z"/>
<path class="st0" d="M83.44,6.87c0,0.37,0,0.68,0,1.06c0.36-0.23,0.66-0.43,0.98-0.62c0.7-0.43,1.43-0.65,2.27-0.52
	c1.53,0.25,2.34,1.18,2.34,2.73c0,1.18,0,2.37,0,3.55c0,0.91,0.15,1.09,1.03,1.34c0.15,0.04,0.43-0.05,0.41,0.29
	c-1.47,0-2.92,0-4.38,0c-0.02-0.02-0.04-0.04-0.05-0.06c0.07-0.06,0.14-0.15,0.22-0.17c1.11-0.32,1.2-0.42,1.19-1.59
	c0-1.09-0.01-2.18-0.03-3.27c0-0.2-0.05-0.41-0.1-0.6c-0.24-0.85-0.83-1.28-1.75-1.27c-0.68,0.01-1.29,0.23-1.82,0.67
	c-0.21,0.17-0.31,0.37-0.31,0.65c0.01,1.41,0,2.82,0.01,4.23c0,0.64,0.17,0.87,0.79,1.05c0.18,0.05,0.38,0.08,0.56,0.14
	c0.08,0.03,0.15,0.11,0.18,0.23c-1.51,0-3.03,0-4.54,0c-0.02-0.02-0.04-0.04-0.06-0.06c0.07-0.06,0.13-0.15,0.21-0.17
	c1.18-0.32,1.24-0.41,1.24-1.61c0-1.38,0-2.75,0-4.13c0-0.85-0.17-1.04-1-1.15c-0.13-0.02-0.25-0.09-0.38-0.13
	c0.13-0.06,0.25-0.15,0.39-0.17C81.68,7.14,82.53,7.01,83.44,6.87z"/>
<path class="st0" d="M107.23,13.41c-0.48,0.42-0.93,0.87-1.43,1.25c-0.66,0.49-1.12,0.43-1.74-0.11c-0.03-0.02-0.05-0.04-0.08-0.07
	c-0.23-0.22-0.44-0.58-0.69-0.61c-0.25-0.03-0.55,0.27-0.82,0.43c-0.77,0.42-1.56,0.74-2.46,0.68c-1.58-0.1-2.53-1.75-1.75-3.09
	c0.39-0.68,1.07-1.04,1.81-1.18c0.94-0.18,1.91-0.24,2.87-0.34c0.12-0.01,0.24-0.02,0.34-0.02c0-0.69,0.08-1.37-0.02-2.02
	c-0.12-0.79-1.03-1.29-1.81-1.1c-0.4,0.1-0.61,0.39-0.74,0.74c-0.11,0.29-0.16,0.61-0.26,0.96c-0.5-0.09-1.03-0.18-1.55-0.27
	c-0.03-0.82,0.72-1.52,1.29-1.7c0.73-0.23,1.48-0.24,2.23-0.17c0.33,0.03,0.66,0.09,0.96,0.2c0.97,0.33,1.48,1.07,1.49,2.16
	c0.01,1.23,0.01,2.46,0,3.69c0,0.39,0.07,0.74,0.44,0.93c0.36,0.18,0.73,0.11,1.07-0.11c0.17-0.11,0.32-0.26,0.5-0.35
	c0.09-0.05,0.22-0.02,0.33-0.03C107.21,13.3,107.22,13.36,107.23,13.41z M103.3,12.23c0-0.26-0.01-0.52,0-0.78
	c0.01-0.22-0.05-0.34-0.29-0.36c-0.33-0.03-0.65-0.11-0.98-0.12c-0.69-0.02-1.37,0.08-1.89,0.6c-0.42,0.42-0.52,0.95-0.37,1.51
	c0.14,0.52,0.56,0.72,1.03,0.83c0.62,0.14,1.21,0,1.79-0.25c0.53-0.23,0.83-0.55,0.71-1.16C103.29,12.42,103.3,12.33,103.3,12.23z"
	/>
<path class="st0" d="M78.79,12.85c0.09,0.08,0.19,0.17,0.29,0.26c-1.71,2.2-4.83,2.51-6.49,0.73c-1.6-1.71-1.45-4.75,0.34-6.25
	c2.23-1.87,5.53-0.63,6.08,2.28c0.02,0.13,0.04,0.27,0.07,0.45c-0.15,0-0.27,0-0.38,0c-1.73,0-3.46,0.01-5.19-0.01
	c-0.32,0-0.42,0.05-0.39,0.41c0.06,0.74,0.21,1.44,0.63,2.06c0.68,1.01,1.78,1.4,3.13,1.07c0.35-0.08,0.7-0.22,1.01-0.39
	C78.21,13.31,78.48,13.07,78.79,12.85z M77.13,9.71c-0.11-0.82-0.12-1.68-0.95-2.12c-0.66-0.35-1.38-0.39-2.03,0.09
	c-0.68,0.49-0.96,1.19-1,2.03C74.5,9.71,75.8,9.71,77.13,9.71z"/>
<path class="st0" d="M110.36,0c0,0.18,0,0.3,0,0.43c0,3.93,0,7.87,0,11.8c0,0.3,0.01,0.59,0.03,0.89c0.06,0.93,0.35,1.23,1.28,1.35
	c0.12,0.02,0.23,0.08,0.34,0.11c-0.01,0.04-0.02,0.08-0.03,0.12c-1.58,0-3.16,0-4.82,0c0.09-0.1,0.12-0.17,0.19-0.2
	c0.08-0.03,0.18-0.03,0.27-0.04c0.71-0.1,1.03-0.4,1.12-1.11c0.04-0.3,0.04-0.61,0.04-0.92c0-3.43,0-6.87,0-10.3
	c0-0.11,0-0.23-0.01-0.34c-0.05-0.87-0.29-1.11-1.16-1.2c-0.09-0.01-0.17-0.09-0.25-0.13c0.08-0.04,0.16-0.11,0.24-0.13
	C108.5,0.22,109.4,0.11,110.36,0z"/>
<path class="st1" d="M19.75,7.33c0-0.13,0-0.23,0-0.31c1.3-0.14,2.58-0.28,3.9-0.42c0,0.2,0,0.42,0,0.64
	c-0.01,1.92-0.01,3.84-0.02,5.77c0,0.86,0.33,1.22,1.18,1.32c0.02,0,0.05-0.01,0.07,0.01c0.08,0.07,0.15,0.14,0.23,0.21
	c-0.09,0.06-0.18,0.16-0.27,0.16c-0.32,0.01-0.64-0.03-0.95-0.03c-1.15,0-2.3,0.02-3.44,0.03c-0.16,0-0.32,0.03-0.48,0
	c-0.09-0.01-0.16-0.1-0.25-0.15c0.07-0.07,0.14-0.17,0.23-0.22c0.09-0.04,0.2-0.02,0.3-0.04c0.63-0.12,0.95-0.5,0.95-1.14
	c0-1.57,0-3.14,0-4.71c0-0.65-0.27-0.95-0.91-1.05C20.12,7.37,19.95,7.36,19.75,7.33z"/>
<path class="st0" d="M97.18,12.98c0.01,0.16,0.06,0.28,0.02,0.31c-0.65,0.58-1.21,1.29-2.09,1.55c-1.63,0.47-2.35-0.13-2.36-1.69
	c-0.01-1.67,0-3.34,0-5.01c0-0.44,0-0.44-0.45-0.44c-0.38,0-0.77,0-1.28,0c0.11-0.15,0.17-0.3,0.24-0.31
	c1.16-0.15,1.78-0.93,2.25-1.88c0.19-0.38,0.32-0.8,0.5-1.2c0.04-0.1,0.17-0.16,0.26-0.24c0.03,0.02,0.06,0.04,0.1,0.06
	c0,0.97,0,1.94,0,2.95c0.95,0,1.86,0,2.8,0c0,0.21,0,0.39,0,0.61c-0.92,0-1.83,0-2.76,0c-0.02,0.09-0.04,0.15-0.04,0.2
	c0,1.66-0.01,3.32,0.01,4.98c0.01,0.9,0.48,1.27,1.36,1.04c0.34-0.09,0.64-0.32,0.95-0.51C96.83,13.32,96.95,13.18,97.18,12.98z"/>
<path class="st1" d="M20.72,2.44c0-0.88,0.67-1.57,1.53-1.57c0.95,0,1.6,0.66,1.6,1.6c0,0.88-0.67,1.53-1.57,1.53
	C21.39,4,20.72,3.34,20.72,2.44z"/>
</svg>
