<?xml version="1.0" encoding="utf-8"?>
<!-- Generator: Adobe Illustrator 21.0.0, SVG Export Plug-In . SVG Version: 6.00 Build 0)  -->
<svg version="1.1" id="Layer_1" xmlns="http://www.w3.org/2000/svg" xmlns:xlink="http://www.w3.org/1999/xlink" x="0px" y="0px"
	 viewBox="0 0 512 512" style="enable-background:new 0 0 512 512;" xml:space="preserve">
<style type="text/css">
	.st0{fill:#FFFFFF;}
</style>
<path class="st0" d="M256,284.6c-43.9,0-78.1-33.6-95.4-65c-0.1-0.1-0.1-0.2-0.2-0.3l-0.3-0.5c-2.9-5.3-5.5-12.5-7.7-21.2
	c-1.1-4.4-2.1-9.1-3-14c-5.8-32.8-8.5-97.9,18-133.8c25.5-34.7,66.3-33.2,88.5-26.6c22.1-6.6,62.9-8.1,88.5,26.6
	c24.5,33.3,22.8,88.7,20.9,111c-0.7,7.9-7.6,13.8-15.5,13.1c-7.9-0.7-13.8-7.6-13.1-15.5c3.3-39-2.6-74.1-15.4-91.5
	c-21.5-29.1-58.6-15.6-60.2-15c-3.3,1.3-7,1.3-10.3,0c-1.5-0.6-38.6-14.1-60.1,15c-17.2,23.4-19.5,73.9-12.8,111.8
	c0.7,4.2,1.6,8.2,2.5,12c2.1,8.4,4.1,12.8,5.1,14.6c0.1,0.3,0.3,0.5,0.4,0.7c12.7,23.1,38.7,49.9,70.1,49.9
	c14.4,0,28.7-5.6,42.3-16.6c10.6-8.6,18.2-18.4,22.7-25.1c4.4-6.6,13.4-8.3,20-3.9c6.6,4.4,8.3,13.4,3.9,20
	c-8.1,12-17.9,22.9-28.5,31.4C297.7,276.7,276.9,284.6,256,284.6z"/>
<path class="st0" d="M351.5,152.3H348c-3.2,0-6.4-1.1-8.9-3.1c-1.8-1.4-4-2.8-6.6-4.1l-0.3-0.1c-0.5-0.3-1-0.5-1.4-0.7l-5.8-2.5
	c-0.5-0.2-0.9-0.4-1.4-0.5L323,141c-0.6-0.2-1.2-0.4-1.8-0.6l-0.4-0.1c-0.7-0.2-1.4-0.5-2.1-0.7l-0.3-0.1c-17-5.4-39.1-8.3-62.2-8.4
	c-0.1,0-0.2,0-0.2,0c-41.3,0-71.5,9.2-83,18.2c-2.5,2-5.7,3.1-8.9,3.1h-3.5c-7.9,0-14.4-6.4-14.4-14.4V57.7c0-1.4,0.2-2.8,0.6-4.2
	C147.4,51.3,163.9,0,256,0c0,0,0.1,0,0.1,0c81.4,0,103.3,38.5,108.1,50.4c0,0,0,0,0,0.1c0.7,1.8,1.1,3,1.2,3.6
	c0.3,1.2,0.5,2.4,0.5,3.7v80.3C365.9,145.9,359.5,152.3,351.5,152.3z M174.8,60.5v55.2c20.8-8.5,49.8-13.4,81.2-13.4
	c0.1,0,0.2,0,0.2,0c25.8,0,51,3.5,70.8,9.7l0.4,0.1c0.8,0.3,1.7,0.5,2.5,0.8l0.4,0.2c0.9,0.3,1.6,0.6,2.4,0.8l0.8,0.3
	c0,0,0.1,0.1,0.1,0.1c0.6,0.2,1.2,0.5,1.9,0.7c0.3,0.1,0.6,0.2,0.9,0.4l0.6,0.3c0,0,0.1,0,0.1,0V60.3c-3.2-6.9-18.9-31.5-81.1-31.5
	c-0.1,0-0.1,0-0.2,0C194.5,28.8,178,54.2,174.8,60.5z"/>
<path class="st0" d="M319.1,333.7c-4.7,0-9.4-2.3-12.1-6.6c-8.5-13.3-14.2-29.6-17.3-49.5c-11,4.6-22.4,7-34,7s-23-2.3-34-7
	c-3,19.2-8.5,35.1-16.5,48.1c-4.2,6.8-13,8.9-19.8,4.7c-6.8-4.2-8.9-13-4.7-19.8c8.3-13.5,13.2-32.7,14.6-57
	c0.3-5.2,3.4-9.9,8.1-12.1c4.7-2.3,10.3-1.8,14.6,1.2c12.3,8.7,25,13.1,37.7,13.1c12.8,0,25.5-4.4,37.7-13.1c4.3-3,9.8-3.5,14.6-1.2
	c4.7,2.3,7.8,6.9,8.1,12.1c1.4,24.9,6.5,44.4,15.2,58c4.3,6.7,2.3,15.6-4.4,19.9C324.5,332.9,321.8,333.7,319.1,333.7z"/>
<path class="st0" d="M431.4,512H80.6c-7.9,0-14.4-6.4-14.4-14.4v-79.1c0-61.8,50.3-112.2,112.2-112.2c3.3,0,6.5,1.1,9,3.2l61.8,49.8
	c2.5,2,5.1,2.4,6.8,2.4s4.3-0.4,6.8-2.4l61.8-49.8c2.6-2.1,5.7-3.2,9-3.2c61.8,0,112.2,50.3,112.2,112.2v79.1
	C445.8,505.6,439.4,512,431.4,512z M94.9,483.2h322.1v-64.7c0-44.3-34.8-80.7-78.5-83.3l-57.7,46.5c-7,5.6-15.8,8.8-24.8,8.8
	s-17.8-3.1-24.8-8.8l-57.7-46.5c-43.7,2.5-78.5,38.9-78.5,83.3L94.9,483.2L94.9,483.2z"/>
</svg>
