<?xml version="1.0" encoding="utf-8"?>
<!-- Generator: Adobe Illustrator 21.0.0, SVG Export Plug-In . SVG Version: 6.00 Build 0)  -->
<svg version="1.1" id="Layer_1" xmlns="http://www.w3.org/2000/svg" xmlns:xlink="http://www.w3.org/1999/xlink" x="0px" y="0px"
	 viewBox="0 0 512 512" style="enable-background:new 0 0 512 512;" xml:space="preserve">
<style type="text/css">
	.st0{fill:#FFFFFF;}
</style>
<g>
	<path class="st0" d="M354.8,412.1H157.2c-7.5,0-13.6,6.1-13.6,13.6c0,7.5,6.1,13.6,13.6,13.6h197.6c7.5,0,13.6-6.1,13.6-13.6
		C368.4,418.2,362.3,412.1,354.8,412.1z"/>
	<path class="st0" d="M256,332.5c7.5,0,13.6-6.1,13.6-13.6v-12.9h12.9c7.5,0,13.6-6.1,13.6-13.6c0-7.5-6.1-13.6-13.6-13.6h-12.9
		v-12.9c0-7.5-6.1-13.6-13.6-13.6c-7.5,0-13.6,6.1-13.6,13.6v12.9h-12.9c-7.5,0-13.6,6.1-13.6,13.6c0,7.5,6.1,13.6,13.6,13.6h12.9
		V319C242.4,326.5,248.5,332.5,256,332.5z"/>
	<path class="st0" d="M256,386.3c51.7,0,93.8-42.1,93.8-93.8c0-8.8-1.2-17.6-3.7-26c-2.1-7.2-9.6-11.4-16.8-9.3
		c-7.2,2.1-11.4,9.6-9.3,16.8c1.7,6,2.6,12.2,2.6,18.5c0,36.8-29.9,66.7-66.7,66.7c-36.8,0-66.7-29.9-66.7-66.7
		c0-36.8,29.9-66.7,66.7-66.7c9.1,0,17.9,1.8,26.2,5.3c6.9,3,14.9-0.2,17.8-7.1c2.9-6.9-0.2-14.9-7.1-17.8
		c-11.7-5-24.1-7.5-36.9-7.5c-51.7,0-93.8,42.1-93.8,93.8S204.3,386.3,256,386.3z"/>
	<path class="st0" d="M441.2,145.4c0-47.1-38.3-85.5-85.5-85.5H341c-0.5-14.7-12.6-26.5-27.3-26.5H301C295.2,14.1,277.2,0,256,0
		c-21.2,0-39.2,14.1-45,33.5h-12.6c-14.8,0-26.9,11.8-27.3,26.5h-14.7c-47.1,0-85.5,38.3-85.5,85.5v12.9c0,0,0,0,0,0v268.3
		c0,47.1,38.3,85.5,85.5,85.5h199.4c47.1,0,85.5-38.3,85.5-85.5v-266c0,0,0,0,0,0V145.4z M236.1,47c0-11,8.9-19.9,19.9-19.9
		s19.9,8.9,19.9,19.9c0,6.3,4.3,11.5,10,13.1c0.2,0,0.3,0.1,0.5,0.1c0.2,0,0.4,0.1,0.6,0.1c0.2,0,0.5,0.1,0.7,0.1
		c0.2,0,0.3,0,0.5,0.1c0.4,0,0.8,0.1,1.2,0.1h24.2c0.1,0,0.2,0.1,0.2,0.2V87v5.4c0,0.1-0.1,0.2-0.2,0.2H198.3
		c-0.1,0-0.2-0.1-0.2-0.2V87V60.8c0-0.1,0.1-0.2,0.2-0.2h0v0h24.2c0.4,0,0.8,0,1.2-0.1c0.2,0,0.3,0,0.5-0.1c0.2,0,0.5-0.1,0.7-0.1
		c0.2,0,0.4-0.1,0.6-0.1c0.2,0,0.3-0.1,0.5-0.1C231.8,58.6,236.1,53.3,236.1,47z M156.3,87H171v5.4c0,15.1,12.3,27.4,27.4,27.4
		h115.3c15.1,0,27.4-12.3,27.4-27.4V87h14.7c31.9,0,58,25.8,58.3,57.7H98C98.3,112.9,124.4,87,156.3,87z M355.7,484.9H156.3
		c-32.2,0-58.3-26.2-58.3-58.3V174.1h316v252.5C414,458.7,387.9,484.9,355.7,484.9z"/>
</g>
</svg>
