<?xml version="1.0" encoding="utf-8"?>
<!-- Generator: Adobe Illustrator 21.0.0, SVG Export Plug-In . SVG Version: 6.00 Build 0)  -->
<svg version="1.1" id="Layer_1" xmlns="http://www.w3.org/2000/svg" xmlns:xlink="http://www.w3.org/1999/xlink" x="0px" y="0px"
	 viewBox="0 0 512 512" style="enable-background:new 0 0 512 512;" xml:space="preserve">
<style type="text/css">
	.st0{fill:#FFFFFF;}
</style>
<path class="st0" d="M211.2,512h-107c-17.6,0-31.9-14.3-31.9-31.9v-181c0-23.3,9.7-45.7,26.6-61.8C90,225,85.3,210.5,85.3,195.3
	c0-24,11.8-46.2,31.3-59.6V41.1c0-11.5,4.9-22.6,13.5-30.4c8.6-7.8,20.1-11.6,31.6-10.5c21.1,2,37,19.9,37,41.5v29.7
	c0,7.8-6.3,14-14,14s-14-6.3-14-14V41.7c0-6.9-5.1-12.9-11.7-13.5c-3.7-0.4-7.2,0.8-10,3.3c-2.7,2.5-4.3,6-4.3,9.6v102.5
	c0,5.2-2.9,10-7.5,12.4c-14.7,7.7-23.8,22.7-23.8,39.2c0,9.7,3.1,18.9,8.9,26.6c8.2,10.8,6.8,25.8-3.2,34.9
	c-11.9,10.9-18.8,26.3-18.8,42.3v181c0,2.1,1.7,3.8,3.8,3.8h107c2.1,0,3.8-1.7,3.8-3.8v-181c0-16-6.9-31.4-18.8-42.3
	c-10-9.1-11.3-24.1-3.2-34.9c5.8-7.7,8.9-16.9,8.9-26.6c0-16.5-9.1-31.5-23.8-39.2c-4.6-2.4-7.5-7.2-7.5-12.4l0-17.4
	c0-7.8,6.3-14,14-14c0,0,0,0,0,0c7.8,0,14,6.3,14,14l0,9.5c19.5,13.4,31.3,35.5,31.3,59.6c0,15.2-4.7,29.7-13.5,42.1
	c16.9,16.1,26.6,38.5,26.6,61.8v181C243.1,497.7,228.8,512,211.2,512z"/>
<g>
	<path class="st0" d="M159.8,448.8H86.3c-7.8,0-14-6.3-14-14V313.1c0-7.8,6.3-14,14-14h73.5c20.5,0,37.2,16.7,37.2,37.2v75.3
		C197,432.1,180.3,448.8,159.8,448.8z M100.3,420.7h59.5c5,0,9.1-4.1,9.1-9.1v-75.3c0-5-4.1-9.1-9.1-9.1h-59.5
		C100.3,327.2,100.3,420.7,100.3,420.7z"/>
	<path class="st0" d="M407.9,512h-107c-17.6,0-31.9-14.3-31.9-31.9v-181c0-23.3,9.7-45.7,26.6-61.8c-8.8-12.3-13.5-26.8-13.5-42.1
		c0-24,11.8-46.2,31.3-59.6V41.1c0-11.5,4.9-22.6,13.5-30.4c8.6-7.8,20.1-11.6,31.6-10.5c21.1,2,37,19.9,37,41.5v29.7
		c0,7.8-6.3,14-14,14s-14-6.3-14-14V41.7c0-6.9-5.1-12.9-11.7-13.5c-3.7-0.4-7.2,0.8-10,3.3c-2.7,2.5-4.3,6-4.3,9.6v102.5
		c0,5.2-2.9,10-7.5,12.4c-14.7,7.7-23.8,22.7-23.8,39.2c0,9.7,3.1,18.9,8.9,26.6c8.2,10.8,6.8,25.8-3.2,34.9
		c-11.9,10.9-18.8,26.3-18.8,42.3v181c0,2.1,1.7,3.8,3.8,3.8h107c2.1,0,3.8-1.7,3.8-3.8v-181c0-16-6.9-31.4-18.8-42.3
		c-10-9.1-11.3-24.1-3.2-34.9c5.8-7.7,8.9-16.9,8.9-26.6c0-16.5-9.1-31.5-23.8-39.2c-4.6-2.4-7.5-7.2-7.5-12.4l0-17.4
		c0-7.8,6.3-14,14-14c0,0,0,0,0,0c7.8,0,14,6.3,14,14l0,9.5c19.5,13.4,31.3,35.5,31.3,59.6c0,15.2-4.7,29.7-13.5,42.1
		c16.9,16.1,26.6,38.5,26.6,61.8v181C439.8,497.7,425.5,512,407.9,512z"/>
</g>
<g>
	<path class="st0" d="M356.4,448.8h-73.5c-7.8,0-14-6.3-14-14V313.1c0-7.8,6.3-14,14-14h73.5c20.5,0,37.2,16.7,37.2,37.2v75.3
		C393.7,432.1,377,448.8,356.4,448.8z M297,420.7h59.5c5,0,9.1-4.1,9.1-9.1v-75.3c0-5-4.1-9.1-9.1-9.1H297V420.7z"/>
	<path class="st0" d="M142.2,252.7h-28.8c-7.8,0-14-6.3-14-14c0-7.8,6.3-14,14-14h28.8c7.8,0,14,6.3,14,14
		C156.3,246.4,150,252.7,142.2,252.7z"/>
	<path class="st0" d="M338.9,252.7h-30.7c-7.8,0-14-6.3-14-14c0-7.8,6.3-14,14-14h30.7c7.8,0,14,6.3,14,14
		C352.9,246.4,346.6,252.7,338.9,252.7z"/>
</g>
</svg>
