<?xml version="1.0" encoding="utf-8"?>
<!-- Generator: Adobe Illustrator 21.0.0, SVG Export Plug-In . SVG Version: 6.00 Build 0)  -->
<svg version="1.1" id="Layer_1" xmlns="http://www.w3.org/2000/svg" xmlns:xlink="http://www.w3.org/1999/xlink" x="0px" y="0px"
	 viewBox="0 0 512 512" style="enable-background:new 0 0 512 512;" xml:space="preserve">
<style type="text/css">
	.st0{fill:#FFFFFF;}
</style>
<g>
	<path class="st0" d="M378.7,512H133.3c-35.2,0-63.8-28.6-63.8-63.8V231.6c0-35.2,28.6-63.8,63.8-63.8H170v-12.9
		c0-7.9,6.4-14.3,14.3-14.3s14.3,6.4,14.3,14.3v27.2c0,7.9-6.4,14.3-14.3,14.3h-51c-19.3,0-35.1,15.7-35.1,35.1v216.7
		c0,19.3,15.7,35.1,35.1,35.1h245.3c19.3,0,35.1-15.7,35.1-35.1V338.5c0-7.9,6.4-14.3,14.3-14.3s14.3,6.4,14.3,14.3v109.7
		C442.4,483.4,413.8,512,378.7,512z"/>
	<path class="st0" d="M428.1,275.4c-7.9,0-14.3-6.4-14.3-14.3v-29.4c0-19.3-15.7-35.1-35.1-35.1h-51c-7.9,0-14.3-6.4-14.3-14.3
		v-27.2c0-7.9,6.4-14.3,14.3-14.3S342,147,342,154.9v12.9h36.6c35.2,0,63.8,28.6,63.8,63.8V261C442.4,268.9,436,275.4,428.1,275.4z"
		/>
</g>
<path class="st0" d="M351.4,117.6H160.6c-32.4,0-58.8-26.4-58.8-58.8S128.2,0,160.6,0h190.7c32.4,0,58.8,26.4,58.8,58.8
	S383.8,117.6,351.4,117.6z M160.6,28.7c-16.6,0-30.1,13.5-30.1,30.1s13.5,30.1,30.1,30.1h190.7c16.6,0,30.1-13.5,30.1-30.1
	S368,28.7,351.4,28.7C351.4,28.7,160.6,28.7,160.6,28.7z"/>
<g>
	<path class="st0" d="M339.8,425.4H172.2c-17.3,0-31.4-14.1-31.4-31.4V285.8c0-17.3,14.1-31.4,31.4-31.4h167.6
		c17.3,0,31.4,14.1,31.4,31.4V394C371.2,411.3,357.1,425.4,339.8,425.4z M172.2,283.1c-1.5,0-2.7,1.2-2.7,2.7V394
		c0,1.5,1.2,2.7,2.7,2.7h167.6c1.5,0,2.7-1.2,2.7-2.7V285.8c0-1.5-1.2-2.7-2.7-2.7H172.2z"/>
	<path class="st0" d="M256,381.4c-7.9,0-14.3-6.4-14.3-14.3v-54.4c0-7.9,6.4-14.3,14.3-14.3s14.3,6.4,14.3,14.3v54.4
		C270.3,375,263.9,381.4,256,381.4z"/>
	<path class="st0" d="M283.2,354.2h-54.4c-7.9,0-14.3-6.4-14.3-14.3c0-7.9,6.4-14.3,14.3-14.3h54.4c7.9,0,14.3,6.4,14.3,14.3
		C297.5,347.8,291.1,354.2,283.2,354.2z"/>
</g>
</svg>
