<?xml version="1.0" encoding="utf-8"?>
<!-- Generator: Adobe Illustrator 21.0.0, SVG Export Plug-In . SVG Version: 6.00 Build 0)  -->
<svg version="1.1" id="Layer_1" xmlns="http://www.w3.org/2000/svg" xmlns:xlink="http://www.w3.org/1999/xlink" x="0px" y="0px"
	 viewBox="0 0 512 512" style="enable-background:new 0 0 512 512;" xml:space="preserve">
<style type="text/css">
	.st0{fill:#FFFFFF;}
</style>
<g>
	<path class="st0" d="M328.2,512c-40.6,0-56.7-7.8-67.3-13c-3-1.5-4-1.9-4.7-2.1c-0.5,0.2-1.9,0.9-3.1,1.6
		c-10.4,5.4-26.2,13.5-69.3,13.5c-37.2,0-71.2-24.6-101-73.3c-22.3-36.3-36.5-76.8-43-97.7l-0.7-2.1C26.3,297.7,2.4,220.9,70.4,153
		c22.4-22.4,48-33.3,78.4-33.3c26.7,0,51.3,8.7,72.9,16.3c12.8,4.5,26.1,9.2,34.3,9.6c8.2-0.4,21.5-5.1,34.3-9.6
		c21.7-7.6,46.2-16.3,72.9-16.3c30.4,0,56,10.9,78.4,33.3c67.9,67.9,44,144.7,31.2,186l-0.7,2.1c-3.8,12.2-10.3,31.3-19.6,52.5
		c-3.3,7.6-12.2,11-19.7,7.7c-7.6-3.3-11-12.2-7.7-19.7c8.8-19.9,14.9-37.8,18.4-49.4l0.7-2.1c12.5-40.1,31.4-100.7-23.8-155.9
		c-16.7-16.7-34.9-24.5-57.2-24.5c-21.6,0-43.6,7.8-62.9,14.6c-15.9,5.6-31,10.9-43.8,11.3c-0.3,0-0.6,0-0.9,0
		c-12.9-0.4-27.9-5.7-43.8-11.3c-19.4-6.8-41.3-14.6-62.9-14.6c-22.3,0-40.5,7.8-57.2,24.5C36.4,229.3,55.3,289.9,67.8,330l0.7,2.2
		c22.5,72.5,64.7,149.9,115.4,149.9c35.8,0,46.8-5.7,55.6-10.2c4.9-2.5,9-4.7,16-5c0.4,0,0.8,0,1.2,0c7.5,0.3,12.1,2.5,17.4,5.1
		c9.1,4.5,20.5,10,54.2,10c20.4,0,40.6-12.3,60-36.7c5.2-6.5,14.6-7.5,21-2.4c6.5,5.1,7.5,14.6,2.4,21
		C386.2,495.9,358.2,512,328.2,512z"/>
	<path class="st0" d="M251.9,175.1c-0.8,0-1.6-0.1-2.4-0.2c-23.6-3.9-76.2-20.4-96.8-42.8C129.3,106.8,122,77.8,120,58
		c-1.8-18.2-0.2-43,10.3-52.9c5.2-4.9,12.7-6.1,25.8-4.2c8.7,1.3,19.3,3.9,29.6,7.3c16.1,5.4,46.4,17.7,67.8,40.1
		c11.6,12.1,20.5,28.6,25.6,47.7c2.1,8-2.6,16.2-10.6,18.3c-8,2.1-16.2-2.6-18.3-10.6C246.5,89.5,240.2,77.5,232,69
		c-23.3-24.3-64.9-36.7-81.5-38.8c-3.1,14.7-2.2,53,24.2,81.7c13.3,14.5,56.7,29.7,79.6,33.5c8.2,1.3,13.7,9,12.3,17.2
		C265.4,169.9,259.1,175.1,251.9,175.1z"/>
</g>
<path class="st0" d="M257.3,411c-4.3,0-10.3,0-49.8-32.6c-14.5-11.9-40.2-34.1-49.5-48.2c-6.3-9.6-14.6-24.8-13.5-46.3
	c1.9-35.5,30.6-63.3,65.4-63.3c23.1,0,38.5,12.6,47.4,20.6c9.1-7.9,25-20.6,47.3-20.6c34.8,0,63.5,27.8,65.4,63.3
	c1.1,21.4-7.1,36.7-13.4,46.3c-9.4,14.3-34.9,36.4-49.2,48.3C268,411,261.6,411,257.3,411z M209.9,250.5c-18.5,0-34.5,15.7-35.5,35
	c-0.5,9.9,2,18.4,8.6,28.3c10.3,15.6,57.7,53.9,74.5,65.3c17.2-11.5,64.1-50.2,74.1-65.3c6.6-10.1,9.1-18.3,8.6-28.3
	c-1-19.3-17-35-35.5-35c-12.6,0-22.2,8.5-29.3,14.6c-5.7,5-10.7,9.3-18.1,9.3c-7.7,0-12.8-4.7-18.3-9.6
	C231.9,258.5,223.1,250.5,209.9,250.5z"/>
</svg>
