<?xml version="1.0" encoding="utf-8"?>
<!-- Generator: Adobe Illustrator 21.0.0, SVG Export Plug-In . SVG Version: 6.00 Build 0)  -->
<svg version="1.1" id="Layer_1" xmlns="http://www.w3.org/2000/svg" xmlns:xlink="http://www.w3.org/1999/xlink" x="0px" y="0px"
	 viewBox="0 0 512 512" style="enable-background:new 0 0 512 512;" xml:space="preserve">
<style type="text/css">
	.st0{fill:#FFFFFF;}
</style>
<g>
	<path class="st0" d="M303.1,512c-60.9,0-118.9-32-194-107.1c-47.7-47.7-80-97.4-96-147.6c-12.6-39.4-10.2-65-9.9-67.8
		c1.1-9.7,3.4-18.9,7-28.2c3.9-10,9.4-19.7,15.9-28c0.3-0.4,0.7-0.8,1.1-1.2l8.5-8.7c10.7-10.9,25-16.8,40.2-16.8
		c15.1,0,29.2,5.9,39.9,16.5l42.1,42.1c22,22,22,57.7,0,79.7l-14,14c9.8,17.5,23.2,40.5,46.9,64.2c23.3,23.3,45.7,36.7,63,46.4
		l11.5-12.2c0.1-0.1,0.2-0.2,0.3-0.3l2.1-2.1c10.6-10.6,24.8-16.5,39.9-16.5c15.1,0,29.2,5.9,39.9,16.5l43.4,43.4
		c10.7,10.7,16.6,24.9,16.5,40.1c-0.1,15.1-6,29.3-16.8,39.9l-8.7,8.5c-0.4,0.4-0.8,0.8-1.3,1.1c-8.2,6.4-17.9,11.9-27.9,15.8
		c0,0-0.1,0-0.2,0.1c-9.7,3.7-18.9,6-28,7C317.3,511.6,310.1,512,303.1,512z M48.9,152.3c-4.5,5.9-8.4,12.7-11.1,19.8
		c-2.7,6.9-4.4,13.7-5.2,20.9c0,0.1-2.2,21.5,8.7,55.6c10,31.4,33.6,80.4,88.7,135.5c69,69,120.7,98.4,173,98.4
		c5.9,0,11.9-0.4,17.9-1.1c0.1,0,0.1,0,0.2,0c6.7-0.7,13.5-2.4,20.8-5.2c7.1-2.8,13.9-6.6,19.7-11.1l8-7.9c5.1-5,8-11.8,8-19
		c0-7.2-2.8-13.9-7.8-19l-43.4-43.4c-5-5-11.8-7.8-18.9-7.8s-13.9,2.8-18.9,7.8l-2,2L267.7,398c-4.6,4.9-12,6.1-18,2.8
		c-0.6-0.3-1.1-0.5-1.6-0.8c-1-0.5-2.1-1-3.6-1.9c-19.5-10.8-46.1-25.6-74.7-54.1c-28.3-28.3-43.1-54.9-53.9-74.4l-0.2-0.3
		c-0.7-1.3-1.4-2.6-2.1-3.9c-0.4-0.7-0.8-1.5-1.1-2.2c-3.1-5.8-2.1-12.9,2.5-17.6L137,224c10.4-10.4,10.4-27.4,0-37.8L94.8,144
		c-5-5.1-11.8-7.8-18.9-7.8c-7.2,0-14,2.8-19.1,8L48.9,152.3z"/>
	<path class="st0" d="M369.3,205.6c-8.2,0-14.8-6.6-14.8-14.8V98c0-8.2,6.6-14.8,14.8-14.8s14.8,6.6,14.8,14.8v92.8
		C384.1,199,377.5,205.6,369.3,205.6z"/>
	<path class="st0" d="M415.7,159.2h-92.8c-8.2,0-14.8-6.6-14.8-14.8s6.6-14.8,14.8-14.8h92.8c8.2,0,14.8,6.6,14.8,14.8
		S423.9,159.2,415.7,159.2z"/>
	<path class="st0" d="M365.9,286.8c-9,0-17.9-0.8-26.6-2.5c-8-1.5-13.3-9.3-11.8-17.3c1.5-8,9.3-13.3,17.3-11.8
		c7.2,1.4,14.6,2,22.1,2c62.2-0.5,112.9-51.5,112.9-113.8c0-62.7-51-113.8-113.7-113.8c0,0,0,0,0,0C304,29.6,253,79.9,252.1,141.7
		c-0.3,19.6,4.5,39,13.8,56.1c1.8,3.3,2.3,7.3,1.3,10.9l-7.1,26.7l13.2-3.5c7.9-2.1,16,2.6,18.1,10.5c2.1,7.9-2.6,16-10.5,18.1
		l-31.4,8.4c-6.4,1.7-13.4-0.1-18.1-4.9s-6.6-11.7-4.8-18.1l10.5-39.3c-9.9-20.2-15-42.7-14.7-65.3c0.5-37.9,15.7-73.5,42.7-100.1
		C292.2,14.6,327.9,0,365.8,0c0,0,0,0,0,0c79.1,0,143.4,64.3,143.4,143.4c0,38.2-14.7,74.1-41.5,101.1c-26.8,27-62.5,42-100.8,42.3
		C366.6,286.8,366.2,286.8,365.9,286.8z"/>
</g>
</svg>
